<mxfile host="Electron" modified="2023-09-28T11:27:01.507Z" agent="Mozilla/5.0 (Windows NT 10.0; Win64; x64) AppleWebKit/537.36 (KHTML, like Gecko) draw.io/21.6.8 Chrome/114.0.5735.289 Electron/25.5.0 Safari/537.36" etag="06aFu9b4r50-HoNUkyWo" version="21.6.8" type="device">
  <diagram name="Page-1" id="ilIUQl2m_toGTI1Usp6P">
    <mxGraphModel dx="853" dy="900" grid="1" gridSize="10" guides="1" tooltips="1" connect="1" arrows="1" fold="1" page="1" pageScale="1" pageWidth="850" pageHeight="1100" math="0" shadow="0">
      <root>
        <mxCell id="0" />
        <mxCell id="1" parent="0" />
        <mxCell id="oj-L4yahtJZQciKTFgk9-1" value="Клиент" style="shape=umlActor;verticalLabelPosition=bottom;verticalAlign=top;html=1;" vertex="1" parent="1">
          <mxGeometry x="40" y="40" width="30" height="60" as="geometry" />
        </mxCell>
        <mxCell id="oj-L4yahtJZQciKTFgk9-4" value="Менеджер" style="shape=umlActor;verticalLabelPosition=bottom;verticalAlign=top;html=1;" vertex="1" parent="1">
          <mxGeometry x="240" y="40" width="30" height="60" as="geometry" />
        </mxCell>
        <mxCell id="oj-L4yahtJZQciKTFgk9-5" value="Бухгалтер" style="shape=umlActor;verticalLabelPosition=bottom;verticalAlign=top;html=1;" vertex="1" parent="1">
          <mxGeometry x="440" y="40" width="30" height="60" as="geometry" />
        </mxCell>
        <mxCell id="oj-L4yahtJZQciKTFgk9-6" value="Кладовщик" style="shape=umlActor;verticalLabelPosition=bottom;verticalAlign=top;html=1;" vertex="1" parent="1">
          <mxGeometry x="640" y="40" width="30" height="60" as="geometry" />
        </mxCell>
        <mxCell id="oj-L4yahtJZQciKTFgk9-11" value="" style="rounded=0;whiteSpace=wrap;html=1;" vertex="1" parent="1">
          <mxGeometry x="250" y="120" width="10" height="220" as="geometry" />
        </mxCell>
        <mxCell id="oj-L4yahtJZQciKTFgk9-12" value="" style="rounded=0;whiteSpace=wrap;html=1;" vertex="1" parent="1">
          <mxGeometry x="450" y="320" width="10" height="160" as="geometry" />
        </mxCell>
        <mxCell id="oj-L4yahtJZQciKTFgk9-13" value="" style="rounded=0;whiteSpace=wrap;html=1;" vertex="1" parent="1">
          <mxGeometry x="650" y="490" width="10" height="150" as="geometry" />
        </mxCell>
        <mxCell id="oj-L4yahtJZQciKTFgk9-14" value="" style="endArrow=classic;html=1;rounded=0;exitX=1.067;exitY=0.075;exitDx=0;exitDy=0;exitPerimeter=0;entryX=-0.067;entryY=0.175;entryDx=0;entryDy=0;entryPerimeter=0;" edge="1" parent="1" target="oj-L4yahtJZQciKTFgk9-11">
          <mxGeometry width="50" height="50" relative="1" as="geometry">
            <mxPoint x="60.66999999999996" y="159.75" as="sourcePoint" />
            <mxPoint x="230" y="110" as="targetPoint" />
            <Array as="points" />
          </mxGeometry>
        </mxCell>
        <mxCell id="oj-L4yahtJZQciKTFgk9-16" value="&lt;font style=&quot;font-size: 12px;&quot;&gt;&lt;b&gt;&lt;font style=&quot;&quot;&gt;запрос на оформление&lt;br&gt;&lt;/font&gt;заказа&lt;/b&gt;&lt;/font&gt;" style="text;html=1;align=center;verticalAlign=middle;resizable=0;points=[];autosize=1;strokeColor=none;fillColor=none;" vertex="1" parent="1">
          <mxGeometry x="75" y="120" width="160" height="40" as="geometry" />
        </mxCell>
        <mxCell id="oj-L4yahtJZQciKTFgk9-21" value="&lt;b&gt;&lt;i&gt;проверка наличия&lt;br&gt;товара на складе&lt;/i&gt;&lt;/b&gt;" style="html=1;align=left;spacingLeft=2;endArrow=block;rounded=0;edgeStyle=orthogonalEdgeStyle;curved=0;rounded=0;" edge="1" parent="1">
          <mxGeometry relative="1" as="geometry">
            <mxPoint x="260" y="200" as="sourcePoint" />
            <Array as="points">
              <mxPoint x="300" y="200" />
              <mxPoint x="300" y="230" />
            </Array>
            <mxPoint x="265" y="230" as="targetPoint" />
          </mxGeometry>
        </mxCell>
        <mxCell id="oj-L4yahtJZQciKTFgk9-23" value="&lt;b&gt;&lt;i&gt;оформление заказа&lt;/i&gt;&lt;/b&gt;" style="html=1;align=left;spacingLeft=2;endArrow=block;rounded=0;edgeStyle=orthogonalEdgeStyle;curved=0;rounded=0;" edge="1" parent="1">
          <mxGeometry relative="1" as="geometry">
            <mxPoint x="260" y="260" as="sourcePoint" />
            <Array as="points">
              <mxPoint x="300" y="260" />
              <mxPoint x="300" y="290" />
            </Array>
            <mxPoint x="265" y="290" as="targetPoint" />
          </mxGeometry>
        </mxCell>
        <mxCell id="oj-L4yahtJZQciKTFgk9-24" value="" style="endArrow=classic;html=1;rounded=0;exitX=1.067;exitY=0.075;exitDx=0;exitDy=0;exitPerimeter=0;entryX=-0.067;entryY=0.175;entryDx=0;entryDy=0;entryPerimeter=0;" edge="1" parent="1">
          <mxGeometry width="50" height="50" relative="1" as="geometry">
            <mxPoint x="260" y="331" as="sourcePoint" />
            <mxPoint x="448" y="330" as="targetPoint" />
            <Array as="points" />
          </mxGeometry>
        </mxCell>
        <mxCell id="oj-L4yahtJZQciKTFgk9-25" value="&lt;b&gt;оформление счёта&lt;/b&gt;" style="text;html=1;align=center;verticalAlign=middle;resizable=0;points=[];autosize=1;strokeColor=none;fillColor=none;" vertex="1" parent="1">
          <mxGeometry x="280" y="298" width="140" height="30" as="geometry" />
        </mxCell>
        <mxCell id="oj-L4yahtJZQciKTFgk9-27" value="" style="endArrow=none;dashed=1;html=1;dashPattern=1 3;strokeWidth=2;rounded=0;exitX=0.5;exitY=0;exitDx=0;exitDy=0;" edge="1" parent="1" source="oj-L4yahtJZQciKTFgk9-12">
          <mxGeometry width="50" height="50" relative="1" as="geometry">
            <mxPoint x="462" y="320" as="sourcePoint" />
            <mxPoint x="455" y="120" as="targetPoint" />
          </mxGeometry>
        </mxCell>
        <mxCell id="oj-L4yahtJZQciKTFgk9-33" value="&lt;b&gt;&lt;i&gt;проверка оплаты&lt;/i&gt;&lt;/b&gt;" style="html=1;align=left;spacingLeft=2;endArrow=block;rounded=0;edgeStyle=orthogonalEdgeStyle;curved=0;rounded=0;" edge="1" parent="1">
          <mxGeometry relative="1" as="geometry">
            <mxPoint x="660" y="550" as="sourcePoint" />
            <Array as="points">
              <mxPoint x="700" y="550" />
              <mxPoint x="700" y="580" />
            </Array>
            <mxPoint x="664.9999999999999" y="580" as="targetPoint" />
          </mxGeometry>
        </mxCell>
        <mxCell id="oj-L4yahtJZQciKTFgk9-35" value="&lt;b&gt;&lt;i&gt;оформление накладных&lt;/i&gt;&lt;/b&gt;" style="html=1;align=left;spacingLeft=2;endArrow=block;rounded=0;edgeStyle=orthogonalEdgeStyle;curved=0;rounded=0;" edge="1" parent="1">
          <mxGeometry relative="1" as="geometry">
            <mxPoint x="460" y="385" as="sourcePoint" />
            <Array as="points">
              <mxPoint x="500" y="385" />
              <mxPoint x="500" y="415" />
            </Array>
            <mxPoint x="464.9999999999999" y="415" as="targetPoint" />
          </mxGeometry>
        </mxCell>
        <mxCell id="oj-L4yahtJZQciKTFgk9-36" value="" style="endArrow=classic;html=1;rounded=0;exitX=0.022;exitY=0.922;exitDx=0;exitDy=0;exitPerimeter=0;entryX=1.22;entryY=0.656;entryDx=0;entryDy=0;entryPerimeter=0;" edge="1" parent="1" source="oj-L4yahtJZQciKTFgk9-12">
          <mxGeometry width="50" height="50" relative="1" as="geometry">
            <mxPoint x="220" y="380" as="sourcePoint" />
            <mxPoint x="62.200000000000045" y="467.68000000000006" as="targetPoint" />
          </mxGeometry>
        </mxCell>
        <mxCell id="oj-L4yahtJZQciKTFgk9-37" value="&lt;b&gt;передача накладных&lt;/b&gt;" style="text;html=1;align=center;verticalAlign=middle;resizable=0;points=[];autosize=1;strokeColor=none;fillColor=none;" vertex="1" parent="1">
          <mxGeometry x="180" y="440" width="150" height="30" as="geometry" />
        </mxCell>
        <mxCell id="oj-L4yahtJZQciKTFgk9-40" value="&lt;b&gt;предоставление накладных&lt;/b&gt;" style="text;html=1;align=center;verticalAlign=middle;resizable=0;points=[];autosize=1;strokeColor=none;fillColor=none;" vertex="1" parent="1">
          <mxGeometry x="265" y="480" width="190" height="30" as="geometry" />
        </mxCell>
        <mxCell id="oj-L4yahtJZQciKTFgk9-43" value="" style="endArrow=classic;html=1;rounded=0;exitX=1.3;exitY=0.735;exitDx=0;exitDy=0;exitPerimeter=0;entryX=0;entryY=0.125;entryDx=0;entryDy=0;entryPerimeter=0;" edge="1" parent="1" target="oj-L4yahtJZQciKTFgk9-13">
          <mxGeometry width="50" height="50" relative="1" as="geometry">
            <mxPoint x="63" y="509.54999999999995" as="sourcePoint" />
            <mxPoint x="380" y="550" as="targetPoint" />
          </mxGeometry>
        </mxCell>
        <mxCell id="oj-L4yahtJZQciKTFgk9-44" value="" style="endArrow=classic;html=1;rounded=0;exitX=-0.02;exitY=0.934;exitDx=0;exitDy=0;exitPerimeter=0;entryX=1.199;entryY=0.981;entryDx=0;entryDy=0;entryPerimeter=0;" edge="1" parent="1">
          <mxGeometry width="50" height="50" relative="1" as="geometry">
            <mxPoint x="647.81" y="620" as="sourcePoint" />
            <mxPoint x="60.00000000000001" y="620.49" as="targetPoint" />
          </mxGeometry>
        </mxCell>
        <mxCell id="oj-L4yahtJZQciKTFgk9-51" value="&lt;font style=&quot;font-size: 12px;&quot;&gt;выдача товара&lt;/font&gt;" style="edgeLabel;html=1;align=center;verticalAlign=middle;resizable=0;points=[];fontStyle=1" vertex="1" connectable="0" parent="oj-L4yahtJZQciKTFgk9-44">
          <mxGeometry x="0.0468" y="-6" relative="1" as="geometry">
            <mxPoint y="-14" as="offset" />
          </mxGeometry>
        </mxCell>
        <mxCell id="oj-L4yahtJZQciKTFgk9-45" value="" style="rounded=0;whiteSpace=wrap;html=1;" vertex="1" parent="1">
          <mxGeometry x="50" y="120" width="10" height="90" as="geometry" />
        </mxCell>
        <mxCell id="oj-L4yahtJZQciKTFgk9-48" value="" style="rounded=0;whiteSpace=wrap;html=1;" vertex="1" parent="1">
          <mxGeometry x="50" y="450" width="10" height="180" as="geometry" />
        </mxCell>
        <mxCell id="oj-L4yahtJZQciKTFgk9-50" value="" style="endArrow=none;dashed=1;html=1;dashPattern=1 3;strokeWidth=2;rounded=0;entryX=0.5;entryY=1;entryDx=0;entryDy=0;exitX=0.5;exitY=0;exitDx=0;exitDy=0;" edge="1" parent="1" source="oj-L4yahtJZQciKTFgk9-48" target="oj-L4yahtJZQciKTFgk9-45">
          <mxGeometry width="50" height="50" relative="1" as="geometry">
            <mxPoint x="130" y="320" as="sourcePoint" />
            <mxPoint x="180" y="270" as="targetPoint" />
          </mxGeometry>
        </mxCell>
        <mxCell id="oj-L4yahtJZQciKTFgk9-52" value="" style="endArrow=none;dashed=1;html=1;dashPattern=1 3;strokeWidth=2;rounded=0;exitX=0.5;exitY=0;exitDx=0;exitDy=0;" edge="1" parent="1" source="oj-L4yahtJZQciKTFgk9-13">
          <mxGeometry width="50" height="50" relative="1" as="geometry">
            <mxPoint x="654.8300000000002" y="507.9999999999999" as="sourcePoint" />
            <mxPoint x="654.8300000000002" y="118" as="targetPoint" />
          </mxGeometry>
        </mxCell>
      </root>
    </mxGraphModel>
  </diagram>
</mxfile>
